<svg xmlns="http://www.w3.org/2000/svg" width="110" height="110" viewBox="0 0 110 110" fill="none"><path d="M17.1875 84.2276V25.7724C17.1875 13.9118 26.779 4.29688 38.6109 4.29688H25.5664C13.7008 4.29688 4.08203 13.9156 4.08203 25.7812V84.2188C4.08203 96.0841 13.7008 105.703 25.5664 105.703H38.6109C26.779 105.703 17.1875 96.0882 17.1875 84.2276Z" fill="#CEE1F2"></path><path d="M72.4023 104.506C70.1826 105.281 67.7967 105.703 65.3125 105.703H25.7812C13.9156 105.703 4.29688 96.0841 4.29688 84.2188V25.7812C4.29688 13.9156 13.9156 4.29688 25.7812 4.29688H65.3125C77.1779 4.29688 86.7969 13.9156 86.7969 25.7812V48.3398M54.7852 82.2852H71.1133M21.4844 82.0703L25.4341 86.1614C27.1343 87.8681 29.8912 87.8681 31.5915 86.1614L39.7461 77.7734" stroke="#405FF2" stroke-width="5" stroke-miterlimit="10" stroke-linecap="round" stroke-linejoin="round"></path><path d="M105.047 70.0629C100.32 68.2247 97.1951 67.9622 94.8535 67.9622C90.5029 67.9622 87.0117 71.489 87.0117 75.8398C87.0117 80.1906 90.9148 83.7175 96.6917 83.7175C101.681 83.7175 105.703 87.2444 105.703 91.5952C105.703 95.9458 101.961 99.4729 97.6106 99.4729C95.5763 99.4729 91.0458 98.8124 86.582 97.038M96.6797 67.9622V61.0156M96.6797 99.4727V105.703M57.793 57.793V59.5117M34.1602 57.793V59.5117" stroke="#FF5CF4" stroke-width="5" stroke-miterlimit="10" stroke-linecap="round" stroke-linejoin="round"></path><path d="M68.5352 36.7383H68.1835C68.1734 36.7146 68.1661 36.6902 68.1557 36.6667L64.3038 28.1203C64.3002 28.1123 64.2967 28.1046 64.2931 28.0966C62.5023 24.1867 58.9291 21.3217 54.734 20.4329C52.2427 19.9053 49.1996 19.5508 45.8829 19.5508C42.6308 19.5508 39.6816 19.8928 37.2649 20.402C33.0507 21.2902 29.4639 24.1577 27.6706 28.0728C27.6669 28.0807 27.6635 28.0887 27.6598 28.0966L23.7974 36.6665C23.7869 36.6899 23.7798 36.7144 23.7697 36.7381H23.418C21.0448 36.7381 19.1211 38.6618 19.1211 41.0349C19.1211 43.4081 21.0448 45.3318 23.418 45.3318V49.303C23.418 54.8137 27.8339 59.2969 33.2617 59.2969H58.6912C64.1193 59.2969 68.5352 54.8137 68.5352 49.3032V45.332C70.9083 45.332 72.832 43.4083 72.832 41.0352C72.832 38.662 70.9083 36.7383 68.5352 36.7383ZM35.4885 31.6415C36.1541 30.1969 37.4799 29.1393 39.0369 28.8112C40.6093 28.4799 42.9015 28.1445 45.8831 28.1445C48.9326 28.1445 51.3212 28.4945 52.953 28.8402C54.4951 29.167 55.811 30.2227 56.4755 31.6654L58.7617 36.7383H33.1914L35.4885 31.6415ZM35.0195 53.0664C32.1718 53.0664 29.8633 50.7579 29.8633 47.9102C29.8633 45.0624 32.1718 42.7539 35.0195 42.7539C37.8673 42.7539 40.1758 45.0624 40.1758 47.9102C40.1758 50.7579 37.8673 53.0664 35.0195 53.0664ZM56.9336 53.0664C54.0858 53.0664 51.7773 50.7579 51.7773 47.9102C51.7773 45.0624 54.0858 42.7539 56.9336 42.7539C59.7813 42.7539 62.0898 45.0624 62.0898 47.9102C62.0898 50.7579 59.7813 53.0664 56.9336 53.0664Z" fill="#FF5CF4"></path></svg>