<?xml version="1.0" encoding="UTF-8"?>
<svg xmlns="http://www.w3.org/2000/svg" width="60" height="60" viewBox="0 0 60 60" fill="none">
  <path d="M23.5465 4.45312C19.8452 4.45312 16.4904 6.63082 14.9836 10.0114L8.88656 23.6906C5.23148 23.9418 2.34375 26.9843 2.34375 30.7031V36.0938C2.34375 39.3298 4.96711 41.9531 8.20312 41.9531H9.80918C9.81785 41.5022 9.82934 41.0514 9.84375 40.6005C9.4623 39.823 9.24727 38.949 9.24727 38.0245L9.14062 33.8672C9.14062 30.7927 9.76617 29.6094 12.0483 29.1497C13.1331 28.9311 14.0413 28.192 14.4858 27.1786L22.0148 10.0114C23.5215 6.63082 26.8764 4.45312 30.5777 4.45312H23.5465Z" fill="#EEF1FB"></path>
  <path d="M8.20312 41.9531C4.96711 41.9531 2.34375 39.3298 2.34375 36.0938V30.7031C2.34375 26.9843 5.23148 23.9418 8.88656 23.6906L14.9836 10.0114C16.4903 6.63082 19.8451 4.45312 23.5465 4.45312H34.2217C37.7441 4.45312 40.9692 6.4275 42.5711 9.56461L45.5859 15.4688M57.6562 30.7031C57.6562 26.8199 54.5082 23.6719 50.625 23.6719H18.6328M28.2422 15.4688V4.57031M32.4609 41.9531H27.1873M20.742 37.2656C18.1532 37.2656 16.0545 39.3643 16.0545 41.9531C16.0545 44.5419 18.1532 46.6406 20.742 46.6406C23.3307 46.6406 25.4295 44.5419 25.4295 41.9531C25.4295 39.3643 23.3309 37.2656 20.742 37.2656Z" stroke="#405FF2" stroke-width="3" stroke-miterlimit="10" stroke-linecap="round" stroke-linejoin="round"></path>
  <path d="M57.6562 41.6016C57.6562 46.0997 54.0098 49.8047 49.5117 49.8047C45.0136 49.8047 41.3672 46.1583 41.3672 41.6602C41.3672 37.162 45.0722 33.5156 49.5703 33.5156M43.5352 48.1055L36.0938 55.5469" stroke="#FF5CF3" stroke-width="3" stroke-miterlimit="10" stroke-linecap="round" stroke-linejoin="round"></path>
</svg>
